<?xml version="1.0" encoding="UTF-8" standalone="no" ?>
<!DOCTYPE svg PUBLIC "-//W3C//DTD SVG 1.1//EN" "http://www.w3.org/Graphics/SVG/1.1/DTD/svg11.dtd">
<svg xmlns="http://www.w3.org/2000/svg" xmlns:xlink="http://www.w3.org/1999/xlink" version="1.1" width="640" height="640" viewBox="0 0 640 640" xml:space="preserve">
<desc>Created with Fabric.js 4.6.0</desc>
<defs>
</defs>
<g transform="matrix(24.39 0 0 24.39 189.73 71.49)" id="3ElJH7Aa3XP8cqfcTMr3h" clip-path="url(#CLIPPATH_16)"  >
<clipPath id="CLIPPATH_16" >
	<rect transform="matrix(1 0 0 1 5.34 10.38)" id="clip0" x="-12" y="-12" rx="0" ry="0" width="24" height="24" />
</clipPath>
<path style="stroke: none; stroke-width: 1; stroke-dasharray: none; stroke-linecap: butt; stroke-dashoffset: 0; stroke-linejoin: miter; stroke-miterlimit: 4; fill: rgb(255,255,255); fill-rule: nonzero; opacity: 1;" vector-effect="non-scaling-stroke"  transform=" translate(-6.66, -1.62)" d="M 5.08057 0 L 6.1623 0 L 6.1623 1.06875 L 7.15183 1.06875 L 7.15183 0 L 8.23361 0 L 8.23361 3.23644 L 7.15188 3.23644 L 7.15188 2.15269 L 6.16235 2.15269 L 6.16235 3.23644 L 5.08061 3.23644 L 5.08057 0 Z" stroke-linecap="round" />
</g>
<g transform="matrix(24.39 0 0 24.39 276.09 71.49)" id="kJiV_VbdavGdLTAggavJS" clip-path="url(#CLIPPATH_17)"  >
<clipPath id="CLIPPATH_17" >
	<rect transform="matrix(1 0 0 1 1.8 10.38)" id="clip0" x="-12" y="-12" rx="0" ry="0" width="24" height="24" />
</clipPath>
<path style="stroke: none; stroke-width: 1; stroke-dasharray: none; stroke-linecap: butt; stroke-dashoffset: 0; stroke-linejoin: miter; stroke-miterlimit: 4; fill: rgb(255,255,255); fill-rule: nonzero; opacity: 1;" vector-effect="non-scaling-stroke"  transform=" translate(-10.2, -1.62)" d="M 9.65622 1.07325 L 8.7039 1.07325 L 8.7039 0 L 11.6908 0 L 11.6908 1.07325 L 10.738 1.07325 L 10.738 3.23644 L 9.65626 3.23644 L 9.65622 1.07325 Z" stroke-linecap="round" />
</g>
<g transform="matrix(24.39 0 0 24.39 368.55 71.49)" id="THrg06BsS8s6lGDDarjxF" clip-path="url(#CLIPPATH_18)"  >
<clipPath id="CLIPPATH_18" >
	<rect transform="matrix(1 0 0 1 -1.99 10.38)" id="clip0" x="-12" y="-12" rx="0" ry="0" width="24" height="24" />
</clipPath>
<path style="stroke: none; stroke-width: 1; stroke-dasharray: none; stroke-linecap: butt; stroke-dashoffset: 0; stroke-linejoin: miter; stroke-miterlimit: 4; fill: rgb(255,255,255); fill-rule: nonzero; opacity: 1;" vector-effect="non-scaling-stroke"  transform=" translate(-13.99, -1.62)" d="M 12.1648 0 L 13.2928 0 L 13.9866 1.13719 L 14.6797 0 L 15.8081 0 L 15.8081 3.23644 L 14.7308 3.23644 L 14.7308 1.63228 L 13.9866 2.78302 L 13.968 2.78302 L 13.2232 1.63228 L 13.2232 3.23644 L 12.1648 3.23644 L 12.1648 0 Z" stroke-linecap="round" />
</g>
<g transform="matrix(24.39 0 0 24.39 457.83 71.49)" id="AUHvhskGU7cKYJsQgg2V-" clip-path="url(#CLIPPATH_19)"  >
<clipPath id="CLIPPATH_19" >
	<rect transform="matrix(1 0 0 1 -5.65 10.38)" id="clip0" x="-12" y="-12" rx="0" ry="0" width="24" height="24" />
</clipPath>
<path style="stroke: none; stroke-width: 1; stroke-dasharray: none; stroke-linecap: butt; stroke-dashoffset: 0; stroke-linejoin: miter; stroke-miterlimit: 4; fill: rgb(255,255,255); fill-rule: nonzero; opacity: 1;" vector-effect="non-scaling-stroke"  transform=" translate(-17.65, -1.62)" d="M 16.3465 0 L 17.4286 0 L 17.4286 2.16666 L 18.9498 2.16666 L 18.9498 3.23644 L 16.3465 3.23644 L 16.3465 0 Z" stroke-linecap="round" />
</g>
<g transform="matrix(24.39 0 0 24.39 320 382.28)" id="yjx4zo0aqDRLo73PvKHI6" clip-path="url(#CLIPPATH_20)"  >
<clipPath id="CLIPPATH_20" >
	<rect transform="matrix(1 0 0 1 0 -2.36)" id="clip0" x="-12" y="-12" rx="0" ry="0" width="24" height="24" />
</clipPath>
<path style="stroke: none; stroke-width: 1; stroke-dasharray: none; stroke-linecap: butt; stroke-dashoffset: 0; stroke-linejoin: miter; stroke-miterlimit: 4; fill: rgb(255,255,255); fill-rule: evenodd; opacity: 1;" vector-effect="non-scaling-stroke"  transform=" translate(-12, -14.36)" d="M 5.04593 22.0724 L 3 4.71658 L 21 4.71658 L 18.9527 22.0697 L 11.9897 24 L 5.04593 22.0724 Z M 9.18344 12.5727 L 8.98891 10.3929 L 17.1343 10.3929 L 17.3249 8.26428 L 6.6626 8.26428 L 7.23672 14.7013 L 14.6138 14.7013 L 14.3668 17.4619 L 11.9927 18.1027 L 11.991 18.1034 L 9.62038 17.4633 L 9.46883 15.7656 L 7.33203 15.7656 L 7.63025 19.1079 L 11.9906 20.3183 L 16.3565 19.1078 L 16.8887 13.1443 L 16.9406 12.5727 L 9.18344 12.5727 Z" stroke-linecap="round" />
</g>
</svg>